<?xml version="1.0" encoding="UTF-8"?>
<svg width="109px" height="145px" viewBox="0 0 109 145" version="1.1" xmlns="http://www.w3.org/2000/svg" xmlns:xlink="http://www.w3.org/1999/xlink">
    <!-- Generator: Sketch 52.6 (67491) - http://www.bohemiancoding.com/sketch -->
    <title>Group 3</title>
    <desc>Created with Sketch.</desc>
    <g id="Page-1" stroke="none" stroke-width="1" fill="none" fill-rule="evenodd">
        <g id="Group-3" transform="translate(51.000000, 76.000000) scale(-1, 1) translate(-51.000000, -76.000000) translate(-4.000000, 3.000000)" fill-rule="nonzero">
            <path d="M40.5016951,16.1372931 C47.3379296,16.1372931 63.1331254,11.291774 68.2687786,16.1372931 C74.0866332,21.6264733 78.518176,31.722633 84.3268509,36.5093861 C85.4244177,37.4138577 85.7438684,42.911846 86.6686532,43.4936664 C90.7612939,46.0685164 93.7300463,41.0183869 93.0249735,40.5838047 C92.322227,40.1506565 89.6746598,25.1302938 80.9814192,14.7791536 C74.0160581,6.48541905 61.0511586,2.45649654 57.8979402,1.87682797 C51.5495533,0.709778989 45.4445788,1.87682797 43.8471269,1.87682797 C40.0824476,1.87682797 30.7863277,4.24791873 24.7781659,9.00706053 C19.8761813,12.8899853 14.7418707,23.954156 14.7418707,24.9652001 C14.7418707,25.6728117 19.2263898,20.7625576 23.4399932,17.4954326 C25.4097668,15.9681185 27.1199682,15.1186884 28.792684,14.7791536 C32.6765179,13.9907967 32.3670907,16.1372931 40.5016951,16.1372931 Z" id="Oval" stroke="#E8E8E8" stroke-width="0.675" fill="#E9E9E9" transform="translate(53.935353, 22.789837) scale(-1, 1) translate(-53.935353, -22.789837) "></path>
            <ellipse id="Oval" stroke="#000000" stroke-width="5.4" fill="#000000" transform="translate(53.312883, 58.400000) scale(-1, 1) translate(-53.312883, -58.400000) " cx="53.3128834" cy="58.4" rx="12.1472393" ry="12.2232558"></ellipse>
            <ellipse id="Oval" stroke="#000000" stroke-width="5.4" fill="#000000" transform="translate(91.104294, 57.041860) scale(-1, 1) translate(-91.104294, -57.041860) " cx="91.1042945" cy="57.0418605" rx="12.1472393" ry="12.2232558"></ellipse>
            <path d="M66.1349693,56.7023256 C68.3844581,56.0232558 70.408998,55.6837209 72.208589,55.6837209 C74.00818,55.6837209 76.0327198,56.0232558 78.2822086,56.7023256" id="Line-2" stroke="#000000" stroke-width="6.075" stroke-linecap="round" transform="translate(72.208589, 56.193023) scale(-1, 1) translate(-72.208589, -56.193023) "></path>
            <path d="M13.8343558,57.7209302 L41.1656442,37.3488372" id="Line-3" stroke="#000000" stroke-width="5.4" stroke-linecap="round" transform="translate(27.331288, 47.874419) scale(-1, 1) translate(-27.331288, -47.874419) "></path>
            <path d="M71.196319,69.2651163 C68.2381038,79.7182867 67.1659543,86.606386 67.9798705,89.9294143 C68.7937868,93.2524426 71.5530528,94.5131804 76.2576687,93.7116279" id="Line-4" stroke="#000000" stroke-width="5.4" stroke-linecap="round" transform="translate(71.987055, 81.605200) scale(-1, 1) translate(-71.987055, -81.605200) "></path>
            <path d="M13.1595092,44.3192886 C13.1595092,16.5054463 25.0968265,1.78047088 48.9714612,0.144362504 C72.8460959,-1.49174587 88.4650158,10.7790669 95.8282209,36.956801" id="Line-5" stroke="#000000" stroke-width="5.4" stroke-linecap="round" transform="translate(54.493865, 22.159644) scale(-1, 1) translate(-54.493865, -22.159644) "></path>
            <path d="M17.2196965,139.195505 C16.2823563,133.277372 15.1669422,126.234924 13.8734541,118.068162 C8.66818826,85.2034072 22.0410311,47.738546 56.1579714,46.3989466 C73.4733838,45.7190581 97.3369381,51.8711064 102.176207,82.425045 C103.052635,87.9585955 103.411252,97.4126895 103.252057,110.787327" id="Line-5" stroke="#000000" stroke-width="5.4" stroke-linecap="round" transform="translate(58.037141, 92.772843) scale(-1, 1) rotate(-171.000000) translate(-58.037141, -92.772843) "></path>
            <path d="M0.485477535,37.4857494 C7.68384154,34.5758699 12.0703446,35.9137023 13.6449867,41.4992467 C16.0069499,49.8775633 9.9333303,54.0620374 5.20940392,53.3829676" id="Line-7" stroke="#000000" stroke-width="5.4" stroke-linecap="round" transform="translate(7.328628, 44.722503) scale(-1, 1) translate(-7.328628, -44.722503) "></path>
            <ellipse id="Oval" stroke="#000000" stroke-width="0.675" fill="#000000" transform="translate(63.098160, 89.976744) scale(-1, 1) translate(-63.098160, -89.976744) " cx="63.0981595" cy="89.9767442" rx="2.36196319" ry="2.37674419"></ellipse>
            <path d="M9.78527607,47.5348837 C11.0897523,47.5348837 12.1472393,46.4707791 12.1472393,45.1581395 C12.1472393,43.8455 11.0897523,42.7813953 9.78527607,42.7813953 C8.48079982,42.7813953 7.42331288,43.8455 7.42331288,45.1581395 C7.42331288,45.4802743 8.80093121,44.4790698 9.44785276,45.1581395 C10.6153598,46.3836649 8.80093121,47.5348837 9.78527607,47.5348837 Z" id="Oval" stroke="#000000" stroke-width="0.675" fill="#000000" transform="translate(9.785276, 45.158140) scale(-1, 1) translate(-9.785276, -45.158140) "></path>
            <path d="M48.5889571,53.2129812 C50.8131707,52.6809793 52.5508375,53.0134805 53.8019577,54.2104848 C55.0530778,55.4074892 55.5396245,56.8039942 55.2615978,58.4" id="Line-8" stroke="#FFFFFF" stroke-width="3.24" stroke-linecap="round" transform="translate(51.963190, 55.683721) scale(-1, 1) translate(-51.963190, -55.683721) "></path>
            <path d="M86.3803681,51.8548417 C88.6045817,51.3228397 90.3422486,51.655341 91.5933687,52.8523453 C92.8444889,54.0493496 93.3310356,55.4458547 93.0530089,57.0418605" id="Line-8" stroke="#FFFFFF" stroke-width="3.24" stroke-linecap="round" transform="translate(89.754601, 54.325581) scale(-1, 1) translate(-89.754601, -54.325581) "></path>
            <path d="M62.9822701,110.348837 L71.8711656,110.348837" id="Line-9" stroke="#000000" stroke-width="5.4" stroke-linecap="round" transform="translate(67.484663, 110.348837) scale(-1, 1) translate(-67.484663, -110.348837) "></path>
        </g>
    </g>
</svg>